<mxfile host="app.diagrams.net" modified="2024-03-15T09:11:43.909Z" agent="Mozilla/5.0 (Windows NT 10.0; Win64; x64) AppleWebKit/537.36 (KHTML, like Gecko) Chrome/122.0.0.0 Safari/537.36 Edg/122.0.0.0" etag="5F8OQWvsVm5dWKj3IYSf" version="23.1.1" type="github">
  <diagram id="C5RBs43oDa-KdzZeNtuy" name="Page-1">
    <mxGraphModel dx="1927" dy="828" grid="1" gridSize="10" guides="1" tooltips="1" connect="1" arrows="1" fold="1" page="1" pageScale="1" pageWidth="827" pageHeight="1169" math="0" shadow="0">
      <root>
        <mxCell id="WIyWlLk6GJQsqaUBKTNV-0" />
        <mxCell id="WIyWlLk6GJQsqaUBKTNV-1" parent="WIyWlLk6GJQsqaUBKTNV-0" />
        <mxCell id="93zsUV2J0ApDYmD7TZZO-63" value="" style="edgeStyle=orthogonalEdgeStyle;rounded=0;orthogonalLoop=1;jettySize=auto;html=1;" parent="WIyWlLk6GJQsqaUBKTNV-1" source="93zsUV2J0ApDYmD7TZZO-64" target="93zsUV2J0ApDYmD7TZZO-66" edge="1">
          <mxGeometry relative="1" as="geometry" />
        </mxCell>
        <mxCell id="93zsUV2J0ApDYmD7TZZO-64" value="Face Id激活" style="rounded=1;whiteSpace=wrap;html=1;" parent="WIyWlLk6GJQsqaUBKTNV-1" vertex="1">
          <mxGeometry x="360" y="220" width="120" height="60" as="geometry" />
        </mxCell>
        <mxCell id="93zsUV2J0ApDYmD7TZZO-65" value="" style="edgeStyle=orthogonalEdgeStyle;rounded=0;orthogonalLoop=1;jettySize=auto;html=1;" parent="WIyWlLk6GJQsqaUBKTNV-1" source="93zsUV2J0ApDYmD7TZZO-66" target="93zsUV2J0ApDYmD7TZZO-69" edge="1">
          <mxGeometry relative="1" as="geometry" />
        </mxCell>
        <mxCell id="93zsUV2J0ApDYmD7TZZO-66" value="获取Imei号" style="rounded=0;whiteSpace=wrap;html=1;" parent="WIyWlLk6GJQsqaUBKTNV-1" vertex="1">
          <mxGeometry x="360" y="340" width="120" height="60" as="geometry" />
        </mxCell>
        <mxCell id="93zsUV2J0ApDYmD7TZZO-67" style="edgeStyle=orthogonalEdgeStyle;rounded=0;orthogonalLoop=1;jettySize=auto;html=1;entryX=0.5;entryY=0;entryDx=0;entryDy=0;" parent="WIyWlLk6GJQsqaUBKTNV-1" source="93zsUV2J0ApDYmD7TZZO-69" target="93zsUV2J0ApDYmD7TZZO-70" edge="1">
          <mxGeometry relative="1" as="geometry" />
        </mxCell>
        <mxCell id="43xQ6NMyt6OMNAoMXdz4-1" value="" style="edgeStyle=orthogonalEdgeStyle;rounded=0;orthogonalLoop=1;jettySize=auto;html=1;" parent="WIyWlLk6GJQsqaUBKTNV-1" source="93zsUV2J0ApDYmD7TZZO-69" target="43xQ6NMyt6OMNAoMXdz4-0" edge="1">
          <mxGeometry relative="1" as="geometry" />
        </mxCell>
        <mxCell id="93zsUV2J0ApDYmD7TZZO-69" value="判断imei号是否为空" style="rhombus;whiteSpace=wrap;html=1;" parent="WIyWlLk6GJQsqaUBKTNV-1" vertex="1">
          <mxGeometry x="345" y="440" width="150" height="75" as="geometry" />
        </mxCell>
        <mxCell id="93zsUV2J0ApDYmD7TZZO-70" value="&lt;font color=&quot;#ff0000&quot;&gt;-1：uuid号获取错误&lt;/font&gt;" style="rounded=1;whiteSpace=wrap;html=1;" parent="WIyWlLk6GJQsqaUBKTNV-1" vertex="1">
          <mxGeometry x="130" y="550" width="120" height="60" as="geometry" />
        </mxCell>
        <mxCell id="93zsUV2J0ApDYmD7TZZO-71" value="空" style="text;html=1;align=center;verticalAlign=middle;resizable=0;points=[];autosize=1;strokeColor=none;fillColor=none;" parent="WIyWlLk6GJQsqaUBKTNV-1" vertex="1">
          <mxGeometry x="210" y="480" width="40" height="30" as="geometry" />
        </mxCell>
        <mxCell id="93zsUV2J0ApDYmD7TZZO-85" value="" style="edgeStyle=orthogonalEdgeStyle;rounded=0;orthogonalLoop=1;jettySize=auto;html=1;fontColor=#000000;" parent="WIyWlLk6GJQsqaUBKTNV-1" source="93zsUV2J0ApDYmD7TZZO-87" edge="1">
          <mxGeometry relative="1" as="geometry">
            <mxPoint x="420" y="1080" as="targetPoint" />
          </mxGeometry>
        </mxCell>
        <mxCell id="93zsUV2J0ApDYmD7TZZO-86" value="" style="edgeStyle=none;shape=connector;rounded=0;orthogonalLoop=1;jettySize=auto;html=1;labelBackgroundColor=default;strokeColor=default;fontFamily=Helvetica;fontSize=11;fontColor=#FF0000;endArrow=classic;" parent="WIyWlLk6GJQsqaUBKTNV-1" source="93zsUV2J0ApDYmD7TZZO-87" target="93zsUV2J0ApDYmD7TZZO-100" edge="1">
          <mxGeometry relative="1" as="geometry" />
        </mxCell>
        <mxCell id="93zsUV2J0ApDYmD7TZZO-87" value="判断是否有网络" style="rhombus;whiteSpace=wrap;html=1;fontColor=#000000;" parent="WIyWlLk6GJQsqaUBKTNV-1" vertex="1">
          <mxGeometry x="365" y="950" width="110" height="80" as="geometry" />
        </mxCell>
        <mxCell id="93zsUV2J0ApDYmD7TZZO-88" value="" style="edgeStyle=orthogonalEdgeStyle;rounded=0;orthogonalLoop=1;jettySize=auto;html=1;fontColor=#000000;" parent="WIyWlLk6GJQsqaUBKTNV-1" source="93zsUV2J0ApDYmD7TZZO-89" target="93zsUV2J0ApDYmD7TZZO-87" edge="1">
          <mxGeometry relative="1" as="geometry" />
        </mxCell>
        <mxCell id="93zsUV2J0ApDYmD7TZZO-89" value="获取网络状态" style="rounded=0;whiteSpace=wrap;html=1;fontColor=#000000;" parent="WIyWlLk6GJQsqaUBKTNV-1" vertex="1">
          <mxGeometry x="360" y="840" width="120" height="60" as="geometry" />
        </mxCell>
        <mxCell id="93zsUV2J0ApDYmD7TZZO-95" value="无" style="text;html=1;align=center;verticalAlign=middle;resizable=0;points=[];autosize=1;strokeColor=none;fillColor=none;fontColor=#000000;" parent="WIyWlLk6GJQsqaUBKTNV-1" vertex="1">
          <mxGeometry x="380" y="1040" width="40" height="30" as="geometry" />
        </mxCell>
        <mxCell id="93zsUV2J0ApDYmD7TZZO-99" value="" style="edgeStyle=none;shape=connector;rounded=0;orthogonalLoop=1;jettySize=auto;html=1;labelBackgroundColor=default;strokeColor=default;fontFamily=Helvetica;fontSize=11;fontColor=#000000;endArrow=classic;" parent="WIyWlLk6GJQsqaUBKTNV-1" source="93zsUV2J0ApDYmD7TZZO-100" target="93zsUV2J0ApDYmD7TZZO-103" edge="1">
          <mxGeometry relative="1" as="geometry" />
        </mxCell>
        <mxCell id="93zsUV2J0ApDYmD7TZZO-100" value="将imei号作为参数传给天瞳服务器" style="whiteSpace=wrap;html=1;fontColor=#000000;" parent="WIyWlLk6GJQsqaUBKTNV-1" vertex="1">
          <mxGeometry x="650" y="960" width="120" height="60" as="geometry" />
        </mxCell>
        <mxCell id="93zsUV2J0ApDYmD7TZZO-101" value="&lt;font color=&quot;#000000&quot;&gt;有网&lt;/font&gt;" style="text;html=1;align=center;verticalAlign=middle;resizable=0;points=[];autosize=1;strokeColor=none;fillColor=none;fontSize=11;fontFamily=Helvetica;fontColor=#FF0000;" parent="WIyWlLk6GJQsqaUBKTNV-1" vertex="1">
          <mxGeometry x="484" y="960" width="50" height="30" as="geometry" />
        </mxCell>
        <mxCell id="93zsUV2J0ApDYmD7TZZO-102" style="edgeStyle=orthogonalEdgeStyle;rounded=0;orthogonalLoop=1;jettySize=auto;html=1;" parent="WIyWlLk6GJQsqaUBKTNV-1" source="93zsUV2J0ApDYmD7TZZO-103" edge="1">
          <mxGeometry relative="1" as="geometry">
            <Array as="points">
              <mxPoint x="710" y="1220" />
              <mxPoint x="540" y="1220" />
              <mxPoint x="540" y="1280" />
            </Array>
            <mxPoint x="540" y="1280" as="targetPoint" />
          </mxGeometry>
        </mxCell>
        <mxCell id="93zsUV2J0ApDYmD7TZZO-103" value="&amp;nbsp;判断天瞳服务器返回&lt;br&gt;的激活状态status" style="rhombus;whiteSpace=wrap;html=1;fontColor=#000000;fontFamily=Helvetica;fontSize=11;" parent="WIyWlLk6GJQsqaUBKTNV-1" vertex="1">
          <mxGeometry x="640" y="1090" width="140" height="70" as="geometry" />
        </mxCell>
        <mxCell id="93zsUV2J0ApDYmD7TZZO-105" value="07" style="text;html=1;align=center;verticalAlign=middle;resizable=0;points=[];autosize=1;strokeColor=none;fillColor=none;" parent="WIyWlLk6GJQsqaUBKTNV-1" vertex="1">
          <mxGeometry x="680" y="1240" width="40" height="30" as="geometry" />
        </mxCell>
        <mxCell id="93zsUV2J0ApDYmD7TZZO-108" value="" style="endArrow=classic;html=1;rounded=0;fontColor=#FF0000;entryX=0.5;entryY=0;entryDx=0;entryDy=0;" parent="WIyWlLk6GJQsqaUBKTNV-1" edge="1">
          <mxGeometry width="50" height="50" relative="1" as="geometry">
            <mxPoint x="709.9999999999998" y="1220" as="sourcePoint" />
            <mxPoint x="710" y="1285" as="targetPoint" />
          </mxGeometry>
        </mxCell>
        <mxCell id="93zsUV2J0ApDYmD7TZZO-110" value="" style="endArrow=classic;html=1;rounded=0;fontColor=#FF0000;entryX=0.396;entryY=0.006;entryDx=0;entryDy=0;entryPerimeter=0;" parent="WIyWlLk6GJQsqaUBKTNV-1" edge="1">
          <mxGeometry width="50" height="50" relative="1" as="geometry">
            <mxPoint x="709.9999999999998" y="1220" as="sourcePoint" />
            <mxPoint x="837.52" y="1285.36" as="targetPoint" />
            <Array as="points">
              <mxPoint x="838" y="1220" />
            </Array>
          </mxGeometry>
        </mxCell>
        <mxCell id="93zsUV2J0ApDYmD7TZZO-114" value="" style="endArrow=classic;html=1;rounded=0;fontColor=#000000;entryX=0.5;entryY=0;entryDx=0;entryDy=0;" parent="WIyWlLk6GJQsqaUBKTNV-1" edge="1">
          <mxGeometry width="50" height="50" relative="1" as="geometry">
            <mxPoint x="829.9999999999998" y="1220" as="sourcePoint" />
            <mxPoint x="990" y="1285" as="targetPoint" />
            <Array as="points">
              <mxPoint x="990" y="1220" />
            </Array>
          </mxGeometry>
        </mxCell>
        <mxCell id="93zsUV2J0ApDYmD7TZZO-115" value="09" style="text;html=1;align=center;verticalAlign=middle;resizable=0;points=[];autosize=1;strokeColor=none;fillColor=none;fontColor=#000000;" parent="WIyWlLk6GJQsqaUBKTNV-1" vertex="1">
          <mxGeometry x="800" y="1240" width="40" height="30" as="geometry" />
        </mxCell>
        <mxCell id="93zsUV2J0ApDYmD7TZZO-117" value="" style="endArrow=classic;html=1;rounded=0;fontColor=#000000;entryX=0.5;entryY=0;entryDx=0;entryDy=0;" parent="WIyWlLk6GJQsqaUBKTNV-1" edge="1">
          <mxGeometry width="50" height="50" relative="1" as="geometry">
            <mxPoint x="990" y="1220" as="sourcePoint" />
            <mxPoint x="1140" y="1285" as="targetPoint" />
            <Array as="points">
              <mxPoint x="1140" y="1220" />
            </Array>
          </mxGeometry>
        </mxCell>
        <mxCell id="93zsUV2J0ApDYmD7TZZO-118" value="05" style="text;html=1;align=center;verticalAlign=middle;resizable=0;points=[];autosize=1;strokeColor=none;fillColor=none;fontColor=#000000;" parent="WIyWlLk6GJQsqaUBKTNV-1" vertex="1">
          <mxGeometry x="940" y="1240" width="40" height="30" as="geometry" />
        </mxCell>
        <mxCell id="93zsUV2J0ApDYmD7TZZO-133" style="edgeStyle=orthogonalEdgeStyle;rounded=0;orthogonalLoop=1;jettySize=auto;html=1;entryX=1;entryY=0.5;entryDx=0;entryDy=0;exitX=0.5;exitY=1;exitDx=0;exitDy=0;" parent="WIyWlLk6GJQsqaUBKTNV-1" source="swDChQ52Aose4Q8gpn2O-5" target="93zsUV2J0ApDYmD7TZZO-132" edge="1">
          <mxGeometry relative="1" as="geometry">
            <mxPoint x="710" y="1345" as="sourcePoint" />
          </mxGeometry>
        </mxCell>
        <mxCell id="93zsUV2J0ApDYmD7TZZO-126" value="不为空" style="text;html=1;align=center;verticalAlign=middle;resizable=0;points=[];autosize=1;strokeColor=none;fillColor=none;" parent="WIyWlLk6GJQsqaUBKTNV-1" vertex="1">
          <mxGeometry x="430" y="520" width="60" height="30" as="geometry" />
        </mxCell>
        <mxCell id="93zsUV2J0ApDYmD7TZZO-129" value="&lt;span style=&quot;color: rgb(255, 0, 0); font-size: 11px;&quot;&gt;05：网络状态不可用&lt;/span&gt;" style="rounded=1;whiteSpace=wrap;html=1;" parent="WIyWlLk6GJQsqaUBKTNV-1" vertex="1">
          <mxGeometry x="360" y="1080" width="120" height="60" as="geometry" />
        </mxCell>
        <mxCell id="93zsUV2J0ApDYmD7TZZO-147" value="" style="edgeStyle=orthogonalEdgeStyle;rounded=0;orthogonalLoop=1;jettySize=auto;html=1;fontColor=#FF0000;" parent="WIyWlLk6GJQsqaUBKTNV-1" source="93zsUV2J0ApDYmD7TZZO-132" target="93zsUV2J0ApDYmD7TZZO-146" edge="1">
          <mxGeometry relative="1" as="geometry" />
        </mxCell>
        <mxCell id="93zsUV2J0ApDYmD7TZZO-132" value="调用深瞳的激活接口" style="rounded=0;whiteSpace=wrap;html=1;" parent="WIyWlLk6GJQsqaUBKTNV-1" vertex="1">
          <mxGeometry x="364" y="1410" width="120" height="60" as="geometry" />
        </mxCell>
        <mxCell id="93zsUV2J0ApDYmD7TZZO-135" value="&lt;font color=&quot;#ff0000&quot;&gt;1000：超过激活次数限制&lt;/font&gt;" style="whiteSpace=wrap;html=1;fontColor=#000000;rounded=1;" parent="WIyWlLk6GJQsqaUBKTNV-1" vertex="1">
          <mxGeometry x="650" y="1810" width="120" height="60" as="geometry" />
        </mxCell>
        <mxCell id="93zsUV2J0ApDYmD7TZZO-140" value="&lt;font color=&quot;#ff0000&quot;&gt;08：设备中已存在的激活文件与当前设备id不匹配&lt;/font&gt;" style="rounded=1;whiteSpace=wrap;html=1;fontColor=#000000;" parent="WIyWlLk6GJQsqaUBKTNV-1" vertex="1">
          <mxGeometry x="210" y="1810" width="120" height="60" as="geometry" />
        </mxCell>
        <mxCell id="93zsUV2J0ApDYmD7TZZO-142" value="-8或-1" style="text;html=1;align=center;verticalAlign=middle;resizable=0;points=[];autosize=1;strokeColor=none;fillColor=none;fontColor=#000000;" parent="WIyWlLk6GJQsqaUBKTNV-1" vertex="1">
          <mxGeometry x="255" y="1760" width="60" height="30" as="geometry" />
        </mxCell>
        <mxCell id="93zsUV2J0ApDYmD7TZZO-149" value="" style="edgeStyle=orthogonalEdgeStyle;rounded=0;orthogonalLoop=1;jettySize=auto;html=1;fontColor=#000000;" parent="WIyWlLk6GJQsqaUBKTNV-1" source="93zsUV2J0ApDYmD7TZZO-146" target="93zsUV2J0ApDYmD7TZZO-148" edge="1">
          <mxGeometry relative="1" as="geometry" />
        </mxCell>
        <mxCell id="93zsUV2J0ApDYmD7TZZO-146" value="&lt;span style=&quot;color: rgb(0, 0, 0);&quot;&gt;&amp;nbsp; &amp;nbsp;获取深瞳接口返回&lt;/span&gt;&lt;br style=&quot;border-color: var(--border-color); color: rgb(0, 0, 0);&quot;&gt;&lt;span style=&quot;color: rgb(0, 0, 0);&quot;&gt;的授权状态&lt;/span&gt;" style="rounded=0;whiteSpace=wrap;html=1;fontColor=#FF0000;" parent="WIyWlLk6GJQsqaUBKTNV-1" vertex="1">
          <mxGeometry x="364" y="1530" width="120" height="60" as="geometry" />
        </mxCell>
        <mxCell id="93zsUV2J0ApDYmD7TZZO-148" value="&lt;font color=&quot;#000000&quot;&gt;&amp;nbsp; &amp;nbsp;判断深瞳接口返回的&lt;br&gt;激活码状态&lt;/font&gt;" style="rhombus;whiteSpace=wrap;html=1;fontColor=#FF0000;" parent="WIyWlLk6GJQsqaUBKTNV-1" vertex="1">
          <mxGeometry x="334" y="1630" width="180" height="80" as="geometry" />
        </mxCell>
        <mxCell id="93zsUV2J0ApDYmD7TZZO-152" value="" style="endArrow=classic;html=1;rounded=0;fontColor=#000000;exitX=0.5;exitY=1;exitDx=0;exitDy=0;entryX=0.5;entryY=0;entryDx=0;entryDy=0;" parent="WIyWlLk6GJQsqaUBKTNV-1" source="93zsUV2J0ApDYmD7TZZO-148" target="93zsUV2J0ApDYmD7TZZO-135" edge="1">
          <mxGeometry width="50" height="50" relative="1" as="geometry">
            <mxPoint x="500" y="1760" as="sourcePoint" />
            <mxPoint x="710" y="1740" as="targetPoint" />
            <Array as="points">
              <mxPoint x="424" y="1740" />
              <mxPoint x="710" y="1740" />
            </Array>
          </mxGeometry>
        </mxCell>
        <mxCell id="93zsUV2J0ApDYmD7TZZO-153" value="1000" style="text;html=1;align=center;verticalAlign=middle;resizable=0;points=[];autosize=1;strokeColor=none;fillColor=none;fontColor=#000000;" parent="WIyWlLk6GJQsqaUBKTNV-1" vertex="1">
          <mxGeometry x="600" y="1710" width="50" height="30" as="geometry" />
        </mxCell>
        <mxCell id="93zsUV2J0ApDYmD7TZZO-154" value="&lt;font color=&quot;#ff0000&quot;&gt;0：激活成功&lt;/font&gt;" style="rounded=1;whiteSpace=wrap;html=1;fontColor=#000000;" parent="WIyWlLk6GJQsqaUBKTNV-1" vertex="1">
          <mxGeometry x="364" y="1810" width="120" height="60" as="geometry" />
        </mxCell>
        <mxCell id="93zsUV2J0ApDYmD7TZZO-155" value="" style="endArrow=classic;html=1;rounded=0;fontColor=#000000;entryX=0.5;entryY=0;entryDx=0;entryDy=0;" parent="WIyWlLk6GJQsqaUBKTNV-1" target="93zsUV2J0ApDYmD7TZZO-154" edge="1">
          <mxGeometry width="50" height="50" relative="1" as="geometry">
            <mxPoint x="424" y="1740" as="sourcePoint" />
            <mxPoint x="560" y="1520" as="targetPoint" />
          </mxGeometry>
        </mxCell>
        <mxCell id="93zsUV2J0ApDYmD7TZZO-156" value="0" style="text;html=1;align=center;verticalAlign=middle;resizable=0;points=[];autosize=1;strokeColor=none;fillColor=none;fontColor=#000000;" parent="WIyWlLk6GJQsqaUBKTNV-1" vertex="1">
          <mxGeometry x="420" y="1760" width="30" height="30" as="geometry" />
        </mxCell>
        <mxCell id="93zsUV2J0ApDYmD7TZZO-157" value="" style="endArrow=classic;html=1;rounded=0;fontColor=#FF0000;entryX=0.5;entryY=0;entryDx=0;entryDy=0;" parent="WIyWlLk6GJQsqaUBKTNV-1" target="93zsUV2J0ApDYmD7TZZO-140" edge="1">
          <mxGeometry width="50" height="50" relative="1" as="geometry">
            <mxPoint x="430" y="1740" as="sourcePoint" />
            <mxPoint x="310" y="1704" as="targetPoint" />
            <Array as="points">
              <mxPoint x="270" y="1740" />
            </Array>
          </mxGeometry>
        </mxCell>
        <mxCell id="93zsUV2J0ApDYmD7TZZO-159" value="03：人脸算法模型加载失败" style="rounded=1;whiteSpace=wrap;html=1;fontColor=#FF0000;" parent="WIyWlLk6GJQsqaUBKTNV-1" vertex="1">
          <mxGeometry x="60" y="1810" width="120" height="60" as="geometry" />
        </mxCell>
        <mxCell id="93zsUV2J0ApDYmD7TZZO-160" value="" style="endArrow=classic;html=1;rounded=0;fontColor=#FF0000;entryX=0.5;entryY=0;entryDx=0;entryDy=0;" parent="WIyWlLk6GJQsqaUBKTNV-1" target="93zsUV2J0ApDYmD7TZZO-159" edge="1">
          <mxGeometry width="50" height="50" relative="1" as="geometry">
            <mxPoint x="270" y="1740" as="sourcePoint" />
            <mxPoint x="560" y="1520" as="targetPoint" />
            <Array as="points">
              <mxPoint x="120" y="1740" />
            </Array>
          </mxGeometry>
        </mxCell>
        <mxCell id="93zsUV2J0ApDYmD7TZZO-161" value="&lt;font color=&quot;#000000&quot;&gt;-3&lt;/font&gt;" style="text;html=1;align=center;verticalAlign=middle;resizable=0;points=[];autosize=1;strokeColor=none;fillColor=none;fontColor=#FF0000;" parent="WIyWlLk6GJQsqaUBKTNV-1" vertex="1">
          <mxGeometry x="120" y="1754" width="30" height="30" as="geometry" />
        </mxCell>
        <mxCell id="43xQ6NMyt6OMNAoMXdz4-8" value="" style="edgeStyle=orthogonalEdgeStyle;rounded=0;orthogonalLoop=1;jettySize=auto;html=1;" parent="WIyWlLk6GJQsqaUBKTNV-1" source="43xQ6NMyt6OMNAoMXdz4-0" target="43xQ6NMyt6OMNAoMXdz4-7" edge="1">
          <mxGeometry relative="1" as="geometry" />
        </mxCell>
        <mxCell id="43xQ6NMyt6OMNAoMXdz4-0" value="获取本地路径存的激活码或应用缓存数据中的授权码" style="rounded=0;whiteSpace=wrap;html=1;" parent="WIyWlLk6GJQsqaUBKTNV-1" vertex="1">
          <mxGeometry x="360" y="570" width="120" height="60" as="geometry" />
        </mxCell>
        <mxCell id="43xQ6NMyt6OMNAoMXdz4-6" value="不存在" style="text;html=1;align=center;verticalAlign=middle;resizable=0;points=[];autosize=1;strokeColor=none;fillColor=none;" parent="WIyWlLk6GJQsqaUBKTNV-1" vertex="1">
          <mxGeometry x="420" y="770" width="60" height="30" as="geometry" />
        </mxCell>
        <mxCell id="43xQ6NMyt6OMNAoMXdz4-11" value="" style="edgeStyle=orthogonalEdgeStyle;rounded=0;orthogonalLoop=1;jettySize=auto;html=1;entryX=0.5;entryY=0;entryDx=0;entryDy=0;" parent="WIyWlLk6GJQsqaUBKTNV-1" source="43xQ6NMyt6OMNAoMXdz4-7" target="93zsUV2J0ApDYmD7TZZO-89" edge="1">
          <mxGeometry relative="1" as="geometry" />
        </mxCell>
        <mxCell id="43xQ6NMyt6OMNAoMXdz4-7" value="判断授权码是否存在" style="rhombus;whiteSpace=wrap;html=1;" parent="WIyWlLk6GJQsqaUBKTNV-1" vertex="1">
          <mxGeometry x="347" y="680" width="146" height="80" as="geometry" />
        </mxCell>
        <mxCell id="43xQ6NMyt6OMNAoMXdz4-15" value="" style="endArrow=classic;html=1;rounded=0;entryX=0;entryY=0.75;entryDx=0;entryDy=0;exitX=0;exitY=0.5;exitDx=0;exitDy=0;" parent="WIyWlLk6GJQsqaUBKTNV-1" source="43xQ6NMyt6OMNAoMXdz4-7" target="93zsUV2J0ApDYmD7TZZO-132" edge="1">
          <mxGeometry width="50" height="50" relative="1" as="geometry">
            <mxPoint x="200" y="745" as="sourcePoint" />
            <mxPoint x="179.99999999999977" y="800" as="targetPoint" />
            <Array as="points">
              <mxPoint x="40" y="720" />
              <mxPoint x="40" y="1455" />
            </Array>
          </mxGeometry>
        </mxCell>
        <mxCell id="43xQ6NMyt6OMNAoMXdz4-16" value="存在" style="text;html=1;align=center;verticalAlign=middle;resizable=0;points=[];autosize=1;strokeColor=none;fillColor=none;" parent="WIyWlLk6GJQsqaUBKTNV-1" vertex="1">
          <mxGeometry x="255" y="685" width="50" height="30" as="geometry" />
        </mxCell>
        <mxCell id="43xQ6NMyt6OMNAoMXdz4-18" value="" style="endArrow=classic;html=1;rounded=0;fontColor=#000000;entryX=0.5;entryY=0;entryDx=0;entryDy=0;" parent="WIyWlLk6GJQsqaUBKTNV-1" edge="1">
          <mxGeometry width="50" height="50" relative="1" as="geometry">
            <mxPoint x="1140" y="1220" as="sourcePoint" />
            <mxPoint x="1290" y="1285" as="targetPoint" />
            <Array as="points">
              <mxPoint x="1290" y="1220" />
            </Array>
          </mxGeometry>
        </mxCell>
        <mxCell id="43xQ6NMyt6OMNAoMXdz4-19" value="02或06" style="text;html=1;align=center;verticalAlign=middle;resizable=0;points=[];autosize=1;strokeColor=none;fillColor=none;fontColor=#000000;" parent="WIyWlLk6GJQsqaUBKTNV-1" vertex="1">
          <mxGeometry x="1280" y="1225" width="60" height="30" as="geometry" />
        </mxCell>
        <mxCell id="43xQ6NMyt6OMNAoMXdz4-25" value="&lt;font style=&quot;font-size: 17px;&quot;&gt;&lt;b&gt;Android Face id激活流程V0.1.49——update20240315&lt;br&gt;（新增激活次数超限状态）&lt;br&gt;&lt;/b&gt;&lt;/font&gt;" style="text;html=1;align=center;verticalAlign=middle;resizable=0;points=[];autosize=1;strokeColor=none;fillColor=none;fontColor=#000000;" parent="WIyWlLk6GJQsqaUBKTNV-1" vertex="1">
          <mxGeometry x="200" y="140" width="440" height="50" as="geometry" />
        </mxCell>
        <mxCell id="swDChQ52Aose4Q8gpn2O-26" value="" style="edgeStyle=orthogonalEdgeStyle;rounded=0;orthogonalLoop=1;jettySize=auto;html=1;" parent="WIyWlLk6GJQsqaUBKTNV-1" source="swDChQ52Aose4Q8gpn2O-2" target="swDChQ52Aose4Q8gpn2O-23" edge="1">
          <mxGeometry relative="1" as="geometry" />
        </mxCell>
        <mxCell id="swDChQ52Aose4Q8gpn2O-2" value="&lt;font color=&quot;#ff0000&quot;&gt;2或6：未经授权激活失败&lt;/font&gt;（02：uuid未在平台录入，06：设备在平台录入了但未授权）" style="rounded=1;whiteSpace=wrap;html=1;fontFamily=Helvetica;fontSize=11;fontColor=#000000;" parent="WIyWlLk6GJQsqaUBKTNV-1" vertex="1">
          <mxGeometry x="1230" y="1285" width="140" height="80" as="geometry" />
        </mxCell>
        <mxCell id="swDChQ52Aose4Q8gpn2O-4" value="深瞳人脸服务器错误，生成激活码失败" style="rounded=1;whiteSpace=wrap;html=1;" parent="WIyWlLk6GJQsqaUBKTNV-1" vertex="1">
          <mxGeometry x="650" y="1285" width="120" height="60" as="geometry" />
        </mxCell>
        <mxCell id="swDChQ52Aose4Q8gpn2O-5" value="&lt;font color=&quot;#000000&quot;&gt;获得服务器返回的人脸激活状态码(code)&lt;/font&gt;" style="rounded=1;whiteSpace=wrap;html=1;fontColor=#FF0000;" parent="WIyWlLk6GJQsqaUBKTNV-1" vertex="1">
          <mxGeometry x="480" y="1285" width="120" height="60" as="geometry" />
        </mxCell>
        <mxCell id="swDChQ52Aose4Q8gpn2O-6" value="03或04" style="text;html=1;align=center;verticalAlign=middle;resizable=0;points=[];autosize=1;strokeColor=none;fillColor=none;" parent="WIyWlLk6GJQsqaUBKTNV-1" vertex="1">
          <mxGeometry x="474" y="1225" width="60" height="30" as="geometry" />
        </mxCell>
        <mxCell id="swDChQ52Aose4Q8gpn2O-13" value="" style="edgeStyle=orthogonalEdgeStyle;rounded=0;orthogonalLoop=1;jettySize=auto;html=1;" parent="WIyWlLk6GJQsqaUBKTNV-1" source="swDChQ52Aose4Q8gpn2O-7" target="swDChQ52Aose4Q8gpn2O-12" edge="1">
          <mxGeometry relative="1" as="geometry" />
        </mxCell>
        <mxCell id="swDChQ52Aose4Q8gpn2O-7" value="&lt;font color=&quot;#000000&quot;&gt;05：深瞳接口激活失败，获取activeCode状态&lt;/font&gt;" style="rounded=1;whiteSpace=wrap;html=1;fontColor=#FF0000;" parent="WIyWlLk6GJQsqaUBKTNV-1" vertex="1">
          <mxGeometry x="930" y="1285" width="120" height="60" as="geometry" />
        </mxCell>
        <mxCell id="swDChQ52Aose4Q8gpn2O-9" value="&lt;span style=&quot;color: rgb(255, 0, 0);&quot;&gt;9：天瞳服务器异常，网络请求失败&lt;/span&gt;" style="rounded=1;whiteSpace=wrap;html=1;fontColor=#000000;" parent="WIyWlLk6GJQsqaUBKTNV-1" vertex="1">
          <mxGeometry x="780" y="1285" width="120" height="60" as="geometry" />
        </mxCell>
        <mxCell id="swDChQ52Aose4Q8gpn2O-11" value="11" style="text;html=1;align=center;verticalAlign=middle;resizable=0;points=[];autosize=1;strokeColor=none;fillColor=none;" parent="WIyWlLk6GJQsqaUBKTNV-1" vertex="1">
          <mxGeometry x="1090" y="1240" width="40" height="30" as="geometry" />
        </mxCell>
        <mxCell id="swDChQ52Aose4Q8gpn2O-17" value="" style="edgeStyle=orthogonalEdgeStyle;rounded=0;orthogonalLoop=1;jettySize=auto;html=1;" parent="WIyWlLk6GJQsqaUBKTNV-1" source="swDChQ52Aose4Q8gpn2O-12" target="swDChQ52Aose4Q8gpn2O-15" edge="1">
          <mxGeometry relative="1" as="geometry">
            <Array as="points">
              <mxPoint x="990" y="1610" />
              <mxPoint x="990" y="1610" />
            </Array>
          </mxGeometry>
        </mxCell>
        <mxCell id="swDChQ52Aose4Q8gpn2O-14" value="&lt;font color=&quot;#ff0000&quot;&gt;1000：超过激活次数限制&lt;/font&gt;" style="whiteSpace=wrap;html=1;fontColor=#000000;rounded=1;" parent="WIyWlLk6GJQsqaUBKTNV-1" vertex="1">
          <mxGeometry x="780" y="1650" width="120" height="60" as="geometry" />
        </mxCell>
        <mxCell id="swDChQ52Aose4Q8gpn2O-15" value="03：人脸算法模型加载失败" style="rounded=1;whiteSpace=wrap;html=1;fontColor=#FF0000;" parent="WIyWlLk6GJQsqaUBKTNV-1" vertex="1">
          <mxGeometry x="950" y="1650" width="120" height="60" as="geometry" />
        </mxCell>
        <mxCell id="swDChQ52Aose4Q8gpn2O-16" value="&lt;font color=&quot;#ff0000&quot;&gt;08：设备中已存在的激活文件与当前设备id不匹配&lt;/font&gt;" style="rounded=1;whiteSpace=wrap;html=1;fontColor=#000000;" parent="WIyWlLk6GJQsqaUBKTNV-1" vertex="1">
          <mxGeometry x="1130" y="1650" width="120" height="60" as="geometry" />
        </mxCell>
        <mxCell id="swDChQ52Aose4Q8gpn2O-18" value="" style="endArrow=classic;html=1;rounded=0;entryX=0.5;entryY=0;entryDx=0;entryDy=0;" parent="WIyWlLk6GJQsqaUBKTNV-1" target="swDChQ52Aose4Q8gpn2O-14" edge="1">
          <mxGeometry width="50" height="50" relative="1" as="geometry">
            <mxPoint x="1150" y="1590" as="sourcePoint" />
            <mxPoint x="830" y="1530" as="targetPoint" />
            <Array as="points">
              <mxPoint x="970" y="1590" />
              <mxPoint x="840" y="1590" />
            </Array>
          </mxGeometry>
        </mxCell>
        <mxCell id="swDChQ52Aose4Q8gpn2O-19" value="" style="endArrow=classic;html=1;rounded=0;entryX=0.5;entryY=0;entryDx=0;entryDy=0;" parent="WIyWlLk6GJQsqaUBKTNV-1" target="swDChQ52Aose4Q8gpn2O-16" edge="1">
          <mxGeometry width="50" height="50" relative="1" as="geometry">
            <mxPoint x="1150" y="1590" as="sourcePoint" />
            <mxPoint x="830" y="1530" as="targetPoint" />
            <Array as="points">
              <mxPoint x="1190" y="1590" />
            </Array>
          </mxGeometry>
        </mxCell>
        <mxCell id="swDChQ52Aose4Q8gpn2O-20" value="1000" style="text;html=1;align=center;verticalAlign=middle;resizable=0;points=[];autosize=1;strokeColor=none;fillColor=none;" parent="WIyWlLk6GJQsqaUBKTNV-1" vertex="1">
          <mxGeometry x="840" y="1600" width="50" height="30" as="geometry" />
        </mxCell>
        <mxCell id="swDChQ52Aose4Q8gpn2O-21" value="-3" style="text;html=1;align=center;verticalAlign=middle;resizable=0;points=[];autosize=1;strokeColor=none;fillColor=none;" parent="WIyWlLk6GJQsqaUBKTNV-1" vertex="1">
          <mxGeometry x="1000" y="1600" width="30" height="30" as="geometry" />
        </mxCell>
        <mxCell id="swDChQ52Aose4Q8gpn2O-22" value="-8或-1" style="text;html=1;align=center;verticalAlign=middle;resizable=0;points=[];autosize=1;strokeColor=none;fillColor=none;" parent="WIyWlLk6GJQsqaUBKTNV-1" vertex="1">
          <mxGeometry x="1130" y="1610" width="60" height="30" as="geometry" />
        </mxCell>
        <mxCell id="swDChQ52Aose4Q8gpn2O-28" value="" style="edgeStyle=orthogonalEdgeStyle;rounded=0;orthogonalLoop=1;jettySize=auto;html=1;" parent="WIyWlLk6GJQsqaUBKTNV-1" source="swDChQ52Aose4Q8gpn2O-23" target="swDChQ52Aose4Q8gpn2O-27" edge="1">
          <mxGeometry relative="1" as="geometry" />
        </mxCell>
        <mxCell id="swDChQ52Aose4Q8gpn2O-23" value="是否循环6次" style="rhombus;whiteSpace=wrap;html=1;" parent="WIyWlLk6GJQsqaUBKTNV-1" vertex="1">
          <mxGeometry x="1245" y="1410" width="110" height="90" as="geometry" />
        </mxCell>
        <mxCell id="swDChQ52Aose4Q8gpn2O-12" value="&lt;font color=&quot;#171616&quot;&gt;判断activeCode&lt;/font&gt;" style="rhombus;whiteSpace=wrap;html=1;fontColor=#FF0000;rounded=1;" parent="WIyWlLk6GJQsqaUBKTNV-1" vertex="1">
          <mxGeometry x="935" y="1430" width="110" height="100" as="geometry" />
        </mxCell>
        <mxCell id="swDChQ52Aose4Q8gpn2O-25" value="&lt;span style=&quot;color: rgb(255, 0, 0);&quot;&gt;11：客户端异常错误&lt;/span&gt;（http请求失败 或json文件解析错误等代码报错问题）" style="rounded=1;whiteSpace=wrap;html=1;fontColor=#000000;" parent="WIyWlLk6GJQsqaUBKTNV-1" vertex="1">
          <mxGeometry x="1080" y="1285" width="120" height="60" as="geometry" />
        </mxCell>
        <mxCell id="swDChQ52Aose4Q8gpn2O-27" value="0206：此设备未授权，激活失败" style="rounded=1;whiteSpace=wrap;html=1;" parent="WIyWlLk6GJQsqaUBKTNV-1" vertex="1">
          <mxGeometry x="1240" y="1570" width="120" height="60" as="geometry" />
        </mxCell>
        <mxCell id="swDChQ52Aose4Q8gpn2O-29" value="是" style="text;html=1;align=center;verticalAlign=middle;resizable=0;points=[];autosize=1;strokeColor=none;fillColor=none;" parent="WIyWlLk6GJQsqaUBKTNV-1" vertex="1">
          <mxGeometry x="1300" y="1518" width="40" height="30" as="geometry" />
        </mxCell>
        <mxCell id="swDChQ52Aose4Q8gpn2O-30" value="" style="endArrow=classic;html=1;rounded=0;exitX=1;exitY=0.5;exitDx=0;exitDy=0;entryX=1;entryY=0.5;entryDx=0;entryDy=0;" parent="WIyWlLk6GJQsqaUBKTNV-1" source="swDChQ52Aose4Q8gpn2O-23" target="93zsUV2J0ApDYmD7TZZO-66" edge="1">
          <mxGeometry width="50" height="50" relative="1" as="geometry">
            <mxPoint x="780" y="1210" as="sourcePoint" />
            <mxPoint x="830" y="1160" as="targetPoint" />
            <Array as="points">
              <mxPoint x="1460" y="1455" />
              <mxPoint x="1460" y="370" />
            </Array>
          </mxGeometry>
        </mxCell>
        <mxCell id="swDChQ52Aose4Q8gpn2O-31" value="否" style="text;html=1;align=center;verticalAlign=middle;resizable=0;points=[];autosize=1;strokeColor=none;fillColor=none;" parent="WIyWlLk6GJQsqaUBKTNV-1" vertex="1">
          <mxGeometry x="1370" y="1428" width="40" height="30" as="geometry" />
        </mxCell>
        <mxCell id="l-fCJ-Rz5Q1h75xTTRvU-0" value="激活次数超限" style="rounded=1;whiteSpace=wrap;html=1;" vertex="1" parent="WIyWlLk6GJQsqaUBKTNV-1">
          <mxGeometry x="590" y="1380" width="120" height="60" as="geometry" />
        </mxCell>
        <mxCell id="l-fCJ-Rz5Q1h75xTTRvU-1" value="" style="endArrow=classic;html=1;rounded=0;entryX=0.334;entryY=-0.039;entryDx=0;entryDy=0;entryPerimeter=0;" edge="1" parent="WIyWlLk6GJQsqaUBKTNV-1" target="l-fCJ-Rz5Q1h75xTTRvU-0">
          <mxGeometry width="50" height="50" relative="1" as="geometry">
            <mxPoint x="630" y="1220" as="sourcePoint" />
            <mxPoint x="840" y="1220" as="targetPoint" />
          </mxGeometry>
        </mxCell>
        <mxCell id="l-fCJ-Rz5Q1h75xTTRvU-2" value="08" style="edgeLabel;html=1;align=center;verticalAlign=middle;resizable=0;points=[];" vertex="1" connectable="0" parent="l-fCJ-Rz5Q1h75xTTRvU-1">
          <mxGeometry x="-0.6171" y="-5" relative="1" as="geometry">
            <mxPoint x="-5" y="4" as="offset" />
          </mxGeometry>
        </mxCell>
      </root>
    </mxGraphModel>
  </diagram>
</mxfile>
